# xmcd
#
# Track frame offsets:
#	150
#	9789
#	30516
#	45718
#	60458
#	65772
#	87949
#	114301
#	134141
#	152993
#	173420
#	182422
#	202111
#	226088
#	239290
#	263030
#	285832
#	294034
#
# Disc length: 4029 seconds
#
# Revision: 1
# Processed by: cddbd v1.5.2PL0 Copyright (c) Steve Scherf et al.
# Submitted via: FairStars CD Ripper 2.00
#
DISCID=e60fbb12
DTITLE=Moondog Jr. - Everyday I wear a greasy black feather on my hat
DYEAR=1995
DGENRE=Indie
TTITLE0=Love 609
TTITLE1=Moondance
TTITLE2=Jintro and The Great Luna
TTITLE3=Moondog
TTITLE4=Canto Hondo
TTITLE5=Cachita
TTITLE6=Waiting 'Til You're Gone
TTITLE7=TV Song
TTITLE8=Jo's Wine Song
TTITLE9=Shall I Let This Good Man In
TTITLE10=Canto Hondo 2
TTITLE11=Love Is A Heavy Brick
TTITLE12=Bombo
TTITLE13=Blues For Sammy
TTITLE14=The Ricochet
TTITLE15=Ice Guitars
TTITLE16=Francis
TTITLE17=Jintro and the Great Luna [Band Version]
EXTD=
EXTT0=
EXTT1=
EXTT2=
EXTT3=
EXTT4=
EXTT5=
EXTT6=
EXTT7=
EXTT8=
EXTT9=
EXTT10=
EXTT11=
EXTT12=
EXTT13=
EXTT14=
EXTT15=
EXTT16=
EXTT17=
PLAYORDER=
